<svg width="161" height="161" viewBox="0 0 161 161" fill="none" xmlns="http://www.w3.org/2000/svg">
<g filter="url(#filter0_i_195_919)">
<rect x="0.743286" y="0.159309" width="160" height="160" rx="24" fill="white"/>
<rect x="0.743286" y="0.159309" width="160" height="160" rx="24" fill="url(#paint0_radial_195_919)" fill-opacity="0.8"/>
<rect x="0.743286" y="0.159309" width="160" height="160" rx="24" fill="url(#paint1_radial_195_919)" fill-opacity="0.8"/>
<g filter="url(#filter1_d_195_919)">
<path d="M130.231 56.2293L82.2447 28.5596C81.3115 28.0259 80.1675 28.0259 79.2343 28.5596L31.2485 56.2293C30.3153 56.763 29.7433 57.7627 29.7433 58.8301V114.17C29.7433 115.244 30.3153 116.237 31.2485 116.77L57.2508 131.759C58.1841 132.293 59.328 132.293 60.2613 131.759L86.2636 116.77C87.1968 116.237 87.7688 115.237 87.7688 114.17V98.6546L101.225 106.412C102.159 106.946 103.302 106.946 104.236 106.412L130.238 91.4234C131.171 90.8897 131.743 89.8899 131.743 88.8225V58.8376C131.743 57.7627 131.171 56.7705 130.238 56.2368L130.231 56.2293ZM102.723 73.8263L80.7395 61.1453L58.7561 73.8263L80.7395 86.5073L58.7561 99.1883L36.7726 86.5073L58.7561 73.8263L36.7726 61.1453L80.7395 35.7908L124.706 61.1453L102.723 73.8263Z" fill="#1E1432"/>
</g>
</g>
<defs>
<filter id="filter0_i_195_919" x="0.743286" y="0.159309" width="160" height="160" filterUnits="userSpaceOnUse" color-interpolation-filters="sRGB">
<feFlood flood-opacity="0" result="BackgroundImageFix"/>
<feBlend mode="normal" in="SourceGraphic" in2="BackgroundImageFix" result="shape"/>
<feColorMatrix in="SourceAlpha" type="matrix" values="0 0 0 0 0 0 0 0 0 0 0 0 0 0 0 0 0 0 127 0" result="hardAlpha"/>
<feMorphology radius="1" operator="erode" in="SourceAlpha" result="effect1_innerShadow_195_919"/>
<feOffset/>
<feComposite in2="hardAlpha" operator="arithmetic" k2="-1" k3="1"/>
<feColorMatrix type="matrix" values="0 0 0 0 1 0 0 0 0 1 0 0 0 0 1 0 0 0 0.5 0"/>
<feBlend mode="normal" in2="shape" result="effect1_innerShadow_195_919"/>
</filter>
<filter id="filter1_d_195_919" x="29.7433" y="28.1593" width="102" height="105" filterUnits="userSpaceOnUse" color-interpolation-filters="sRGB">
<feFlood flood-opacity="0" result="BackgroundImageFix"/>
<feColorMatrix in="SourceAlpha" type="matrix" values="0 0 0 0 0 0 0 0 0 0 0 0 0 0 0 0 0 0 127 0" result="hardAlpha"/>
<feOffset dy="1"/>
<feComposite in2="hardAlpha" operator="out"/>
<feColorMatrix type="matrix" values="0 0 0 0 1 0 0 0 0 1 0 0 0 0 1 0 0 0 1 0"/>
<feBlend mode="normal" in2="BackgroundImageFix" result="effect1_dropShadow_195_919"/>
<feBlend mode="normal" in="SourceGraphic" in2="effect1_dropShadow_195_919" result="shape"/>
</filter>
<radialGradient id="paint0_radial_195_919" cx="0" cy="0" r="1" gradientUnits="userSpaceOnUse" gradientTransform="translate(0.638612 2.15656) rotate(47.752) scale(163.343)">
<stop stop-color="#DA79E5"/>
<stop offset="1" stop-color="#DA79E5" stop-opacity="0"/>
</radialGradient>
<radialGradient id="paint1_radial_195_919" cx="0" cy="0" r="1" gradientUnits="userSpaceOnUse" gradientTransform="translate(160.558 160.743) rotate(179.82) scale(144.222 101.233)">
<stop stop-color="#6139F7"/>
<stop offset="1" stop-color="#6139F7" stop-opacity="0"/>
</radialGradient>
</defs>
</svg>
